# xmcd CD database file
# Copyright (C) 1995-1998 Ti Kan
#
# Track frame offsets:
#	150
#	1292
#	13279
#	28211
#	47290
#	62896
#	76810
#	102571
#
# Disc length: 1541 seconds
#
# Revision: 1
# Processed by: cddbd v1.4PL0 Copyright (c) Steve Scherf et al.
# Submitted via: CDex 1.30Release
#
DISCID=5d060308
DTITLE=Joey Love and Blues Xpress - Live, Raw, and Uncut
DYEAR=2000
DGENRE=Blues
TTITLE0=Introduction
TTITLE1=Baby U Mean
TTITLE2=Last Broken Heart
TTITLE3=Givin' Up On Love
TTITLE4=I Ain't Gonna Put Up
TTITLE5=Smilin' Cause I'm Through With You
TTITLE6=Lead Me Through Your Door
TTITLE7=Mud Buggin'
EXTD=YEAR: 2000 ID3G:   0
EXTT0=
EXTT1=
EXTT2=
EXTT3=
EXTT4=
EXTT5=
EXTT6=
EXTT7=
PLAYORDER=
